<?xml version="1.0" standalone="no"?>
<!DOCTYPE svg PUBLIC "-//W3C//DTD SVG 20010904//EN"
 "http://www.w3.org/TR/2001/REC-SVG-20010904/DTD/svg10.dtd">
<svg version="1.0" xmlns="http://www.w3.org/2000/svg"
 width="1396.000000pt" height="1396.000000pt" viewBox="0 0 1396.000000 1396.000000"
 preserveAspectRatio="xMidYMid meet">
<metadata>
Created by potrace 1.14, written by Peter Selinger 2001-2017
</metadata>
<g transform="translate(0.000000,1396.000000) scale(0.100000,-0.100000)"
fill="#000000" stroke="none">
<path d="M3875 8466 c-277 -54 -473 -253 -521 -526 -54 -310 81 -597 341 -726
94 -46 161 -63 280 -70 202 -13 364 43 486 165 38 38 69 76 69 84 0 8 -28 33
-62 55 l-62 41 -51 -53 c-84 -88 -204 -136 -338 -136 -288 0 -491 210 -491
510 0 302 201 510 494 510 133 0 246 -46 333 -135 l54 -56 62 42 c33 24 61 49
61 57 0 8 -30 44 -67 81 -72 72 -155 120 -253 147 -79 21 -250 26 -335 10z"/>
<path d="M1080 7565 l0 -875 90 0 90 0 0 693 c1 546 3 689 13 676 7 -9 160
-269 342 -578 l329 -561 47 0 47 0 339 580 338 579 3 -694 2 -695 90 0 90 0 0
875 0 875 -78 0 -79 0 -374 -645 c-226 -391 -376 -640 -381 -632 -4 6 -173
296 -376 642 l-370 630 -81 3 -81 3 0 -876z"/>
<path d="M4960 7565 l0 -875 95 0 95 0 0 405 0 405 545 0 545 0 0 -405 0 -405
95 0 95 0 0 875 0 875 -95 0 -95 0 0 -390 0 -390 -545 0 -545 0 0 390 0 390
-95 0 -95 0 0 -875z"/>
<path d="M7040 7565 l0 -875 620 0 620 0 0 80 0 80 -527 2 -528 3 -3 323 -2
322 455 0 455 0 0 80 0 80 -452 2 -453 3 -3 308 -2 307 510 0 510 0 0 80 0 80
-600 0 -600 0 0 -875z"/>
<path d="M8750 7565 l0 -875 95 0 95 0 2 707 3 706 560 -706 559 -707 78 0 78
0 0 875 0 875 -95 0 -95 0 -2 -702 -3 -701 -555 699 -555 699 -83 3 -82 3 0
-876z"/>
<path d="M10830 7566 l0 -876 90 0 90 0 0 274 c0 151 4 277 8 280 5 3 143 6
308 6 l299 2 200 -281 199 -281 99 0 c78 0 98 3 94 13 -3 7 -98 143 -211 302
l-206 288 55 22 c180 74 297 217 331 406 19 102 12 231 -16 322 -41 132 -150
255 -284 320 -142 70 -145 70 -623 74 l-433 4 0 -875z m832 700 c150 -32 273
-125 318 -241 21 -51 24 -78 25 -180 0 -114 -1 -123 -32 -187 -40 -84 -106
-151 -187 -189 -109 -51 -171 -59 -488 -59 l-288 0 0 435 0 435 293 0 c213 0
310 -4 359 -14z"/>
<path d="M12721 7869 l349 -572 0 -303 0 -304 90 0 90 0 0 301 0 302 337 551
c185 303 343 561 351 574 l14 22 -94 0 -95 0 -288 -472 c-158 -260 -293 -479
-299 -486 -9 -9 -79 98 -306 472 l-295 485 -102 0 -101 1 349 -571z"/>
<path d="M5495 5950 c-316 -49 -593 -268 -699 -551 -74 -197 -74 -461 0 -658
55 -146 181 -307 307 -393 82 -56 208 -114 302 -140 68 -18 107 -21 255 -21
208 0 278 15 435 92 211 105 360 275 434 497 122 364 3 775 -288 996 -87 66
-226 132 -331 158 -98 24 -318 35 -415 20z m321 -171 c254 -46 464 -239 546
-499 19 -63 23 -96 23 -210 0 -114 -4 -147 -23 -210 -101 -322 -360 -511 -702
-511 -327 0 -585 173 -691 462 -132 362 30 765 367 915 136 60 326 81 480 53z"/>
<path d="M7385 5950 c-209 -33 -358 -129 -432 -277 -31 -63 -36 -84 -41 -167
-7 -139 18 -214 100 -301 97 -104 156 -128 643 -261 232 -64 329 -152 329
-299 0 -78 -27 -137 -90 -194 -93 -85 -217 -117 -418 -108 -186 8 -366 69
-482 163 l-54 44 -14 -23 c-8 -12 -25 -44 -38 -71 l-23 -48 44 -40 c62 -54
207 -123 326 -155 90 -24 118 -26 280 -27 205 -1 269 11 393 71 178 87 272
244 259 433 -7 108 -38 180 -102 245 -92 91 -200 135 -595 240 -263 70 -360
143 -377 284 -9 81 19 154 85 221 92 92 218 127 416 117 132 -7 227 -31 346
-90 47 -23 88 -43 91 -45 4 -2 13 14 22 35 8 21 23 55 31 75 l16 38 -102 49
c-143 69 -240 91 -413 96 -77 2 -167 0 -200 -5z"/>
<path d="M1120 5066 l0 -876 393 0 c417 0 599 10 700 36 89 23 177 67 234 118
175 157 178 477 6 638 -57 52 -95 74 -172 98 l-53 17 53 30 c109 61 181 169
200 296 29 195 -53 360 -222 444 -131 66 -135 67 -661 71 l-478 3 0 -875z
m901 710 c120 -26 200 -78 245 -158 26 -48 29 -62 29 -143 0 -81 -3 -95 -30
-144 -36 -65 -95 -111 -185 -143 -62 -22 -80 -23 -422 -26 l-358 -3 0 315 0
316 328 0 c242 0 344 -4 393 -14z m90 -790 c197 -42 287 -149 277 -331 -8
-144 -74 -226 -226 -277 -64 -21 -85 -22 -464 -26 l-398 -3 0 325 0 326 373 0
c279 0 388 -4 438 -14z"/>
<path d="M3040 5066 l0 -876 95 0 95 0 0 280 0 280 295 2 c162 0 299 1 304 2
6 1 100 -126 211 -281 l200 -283 100 0 c55 0 100 2 100 4 0 3 -95 138 -211
301 -116 163 -209 298 -207 299 1 1 23 11 48 21 169 70 286 204 325 367 20 84
19 254 -1 332 -39 150 -141 274 -286 345 -152 75 -151 75 -635 79 l-433 3 0
-875z m852 695 c99 -26 170 -62 223 -116 120 -120 149 -330 69 -501 -30 -64
-118 -148 -186 -178 -110 -48 -176 -56 -482 -56 l-286 0 0 435 0 435 293 0
c258 0 303 -2 369 -19z"/>
<path d="M9310 5065 l0 -875 585 0 585 0 0 80 0 80 -490 0 -490 0 0 795 0 795
-95 0 -95 0 0 -875z"/>
<path d="M10390 5860 l0 -80 305 0 305 0 0 -795 0 -795 95 0 95 0 0 795 0 795
305 0 305 0 0 80 0 80 -705 0 -705 0 0 -80z"/>
<path d="M12140 5066 l0 -876 348 0 c517 0 644 16 821 100 263 126 428 345
472 630 16 106 6 305 -21 400 -46 165 -146 319 -275 423 -75 61 -235 141 -340
169 -76 21 -103 22 -542 26 l-463 3 0 -875z m945 690 c209 -61 366 -187 450
-361 54 -112 69 -183 69 -325 0 -142 -15 -213 -69 -325 -88 -182 -247 -305
-464 -362 -90 -24 -116 -25 -418 -30 l-323 -6 0 717 0 717 348 -4 c293 -3 356
-6 407 -21z"/>
</g>
</svg>
