<?xml version="1.0" standalone="no"?>
<!DOCTYPE svg PUBLIC "-//W3C//DTD SVG 20010904//EN"
 "http://www.w3.org/TR/2001/REC-SVG-20010904/DTD/svg10.dtd">
<svg version="1.0" xmlns="http://www.w3.org/2000/svg"
 width="2071.000000pt" height="2071.000000pt" viewBox="0 0 2071.000000 2071.000000"
 preserveAspectRatio="xMidYMid meet">
<metadata>
Created by potrace 1.14, written by Peter Selinger 2001-2017
</metadata>
<g transform="translate(0.000000,2071.000000) scale(0.100000,-0.100000)"
fill="#000000" stroke="none">
<path d="M7410 14985 c-24 -15 -406 -201 -595 -290 -49 -23 -180 -86 -290
-140 -110 -53 -263 -128 -340 -165 -77 -37 -212 -102 -300 -145 -88 -43 -218
-106 -290 -140 -71 -34 -213 -103 -315 -152 -102 -50 -250 -122 -330 -161 -80
-38 -221 -107 -315 -152 -93 -45 -233 -113 -310 -150 -77 -37 -216 -105 -310
-150 -93 -45 -224 -108 -290 -140 -66 -32 -205 -99 -310 -150 -104 -51 -245
-119 -312 -151 -68 -32 -123 -62 -124 -66 -1 -11 -1 -6680 0 -6718 l1 -30 113
1 c61 1 118 2 125 3 10 1 12 550 12 2804 0 1541 -1 3024 0 3295 l0 493 198 95
c108 53 251 122 317 154 66 32 210 102 320 155 110 54 250 121 310 150 61 29
196 94 300 145 105 51 249 121 320 155 167 80 371 179 610 295 105 51 249 121
320 155 208 100 392 189 664 321 139 68 255 124 256 124 2 0 136 65 299 145
l296 144 172 -83 c95 -46 259 -125 363 -176 105 -51 235 -114 290 -140 55 -26
195 -94 310 -150 116 -56 264 -128 330 -160 114 -55 254 -122 625 -302 91 -44
224 -109 295 -143 72 -34 211 -102 310 -150 99 -48 243 -118 320 -155 229
-110 426 -206 684 -331 134 -66 245 -119 247 -119 2 0 71 -33 153 -74 82 -41
158 -77 169 -80 18 -6 27 6 71 99 28 59 51 110 51 114 0 3 -44 27 -97 53 -94
45 -358 172 -663 320 -80 39 -203 99 -275 133 -71 34 -211 102 -310 150 -177
86 -332 161 -630 305 -155 75 -332 161 -635 308 -96 46 -224 108 -285 137 -60
29 -200 96 -310 150 -225 110 -472 229 -650 315 -66 32 -214 103 -329 159
-115 55 -209 101 -210 101 0 0 -12 -7 -26 -15z"/>
<path d="M6885 12003 c-171 -33 -296 -100 -394 -210 -56 -63 -123 -185 -136
-248 -5 -22 -10 -47 -12 -55 -3 -8 -7 -55 -10 -104 -18 -302 141 -559 409
-660 84 -32 113 -37 238 -43 199 -9 351 45 473 169 38 38 66 75 64 81 -2 7
-32 32 -66 56 -62 43 -63 43 -77 23 -119 -170 -386 -222 -599 -117 -161 78
-252 227 -260 425 -11 257 127 456 356 515 60 16 178 21 234 10 89 -17 178
-68 244 -138 l43 -46 64 42 c35 23 64 48 64 55 0 6 -31 43 -68 82 -115 117
-268 173 -456 169 -50 -2 -100 -4 -111 -6z"/>
<path d="M4063 11105 l0 -875 88 0 89 0 2 690 3 691 213 -363 c117 -200 264
-450 327 -557 63 -107 115 -197 115 -201 0 -18 39 -37 76 -38 l40 -2 69 118
c37 64 131 225 208 357 77 132 161 276 188 320 26 44 56 96 67 115 115 204
152 262 153 245 0 -11 1 -325 1 -697 l0 -678 89 0 89 0 0 875 0 875 -77 0 -78
0 -114 -198 c-63 -108 -227 -390 -364 -627 -137 -236 -255 -438 -262 -447 -10
-16 -49 46 -286 449 -151 256 -286 487 -300 512 -15 25 -61 106 -104 179 l-77
132 -78 0 -77 0 0 -875z"/>
<path d="M7945 11108 l0 -873 93 -3 92 -3 0 405 0 404 549 0 549 0 -1 -404 -2
-404 93 0 92 0 0 875 0 875 -90 0 -90 0 -1 -32 c0 -18 -1 -194 -1 -390 l0
-358 -549 0 -549 0 0 390 0 390 -93 0 -92 0 0 -872z"/>
<path d="M10015 11108 l0 -873 620 -3 620 -2 0 80 0 80 -527 0 -528 0 0 325 0
325 453 2 452 3 0 75 0 75 -410 2 c-226 1 -429 2 -452 3 l-43 0 0 310 0 310
508 0 508 0 0 80 -1 80 -600 0 -600 0 0 -872z"/>
<path d="M11739 11978 c-1 -2 -2 -396 -3 -875 l-2 -873 93 0 93 0 0 708 1 707
20 -25 c32 -40 59 -74 199 -250 72 -91 136 -172 143 -180 7 -8 71 -89 143
-180 72 -91 227 -286 345 -435 118 -148 227 -287 243 -307 l28 -38 79 0 79 0
0 875 0 875 -92 0 -93 0 1 -705 c1 -388 0 -705 -1 -705 -2 0 -41 48 -87 106
-46 59 -88 111 -93 118 -6 6 -123 153 -261 326 -138 173 -348 438 -467 588
l-217 272 -75 0 c-41 0 -76 -1 -76 -2z"/>
<path d="M13805 11108 l0 -873 93 -3 92 -3 0 276 0 275 33 0 c17 0 155 1 305
2 149 1 274 -1 276 -3 6 -5 232 -321 321 -448 l70 -100 103 -1 c56 0 102 2
102 4 0 2 -94 135 -210 296 l-209 293 90 44 c204 100 312 290 303 537 -3 102
-19 165 -61 253 -61 126 -194 234 -345 280 -125 38 -178 41 -573 42 l-390 1 0
-872z m815 696 c258 -48 399 -241 363 -493 -27 -179 -130 -292 -319 -346 -48
-14 -116 -18 -366 -22 l-308 -5 0 441 0 442 278 -2 c190 -1 301 -5 352 -15z"/>
<path d="M15353 11973 c36 -61 267 -439 305 -500 29 -46 52 -85 52 -88 0 -3 5
-11 10 -18 19 -22 150 -239 150 -248 0 -5 5 -9 10 -9 6 0 10 -6 10 -14 0 -7 9
-24 19 -37 10 -14 27 -39 37 -56 11 -17 38 -63 62 -103 l42 -72 0 -299 0 -299
90 0 90 0 1 58 c0 31 1 166 1 300 l0 242 61 100 c34 56 69 113 78 128 32 53
403 660 480 784 44 70 79 130 79 133 0 3 -42 5 -93 5 l-93 0 -18 -32 c-11 -18
-34 -55 -51 -83 -33 -52 -385 -629 -471 -772 -27 -45 -52 -83 -56 -83 -3 0
-97 150 -208 333 -112 182 -216 352 -231 377 -16 25 -57 92 -92 150 l-63 105
-103 3 c-56 1 -101 -1 -98 -5z"/>
<path d="M6332 10450 c-4 -3 -7 -56 -7 -117 l-1 -113 601 0 601 0 -1 118 0
117 -593 0 c-326 1 -596 -2 -600 -5z"/>
<path d="M8435 9480 c-349 -75 -597 -305 -686 -635 -28 -104 -35 -327 -12
-430 36 -170 112 -313 228 -431 125 -127 248 -197 427 -246 71 -19 108 -22
253 -22 196 1 270 16 414 84 246 118 412 321 479 585 17 66 22 307 9 387 -36
222 -175 440 -359 566 -72 49 -203 109 -293 133 -117 31 -337 36 -460 9z m306
-154 c148 -13 309 -89 420 -198 100 -98 176 -240 194 -359 4 -24 9 -47 11 -51
8 -12 6 -177 -1 -233 -4 -27 -18 -83 -31 -123 -120 -367 -507 -562 -904 -456
-375 99 -591 472 -506 873 17 79 79 215 123 270 132 163 307 260 503 278 36 3
66 7 68 8 1 1 15 1 30 0 15 -2 56 -6 93 -9z"/>
<path d="M10385 9494 c-322 -52 -502 -229 -494 -488 4 -125 36 -204 113 -281
90 -90 192 -131 591 -235 265 -69 369 -157 368 -311 0 -144 -96 -246 -273
-290 -89 -22 -326 -17 -424 10 -101 27 -228 88 -295 141 -29 23 -54 40 -55 38
-2 -1 -18 -34 -36 -72 l-33 -70 41 -36 c91 -81 251 -146 437 -178 51 -9 298
-9 350 0 223 37 364 130 438 288 29 60 31 73 31 180 1 111 0 118 -32 182 -75
153 -192 217 -583 317 -314 81 -405 135 -443 263 -40 131 31 272 169 337 76
36 198 54 315 48 58 -3 114 -8 126 -11 68 -15 169 -52 238 -87 43 -22 81 -37
84 -34 3 3 18 34 33 70 24 58 26 67 12 80 -36 37 -196 99 -335 131 -32 8 -306
13 -343 8z"/>
<path d="M4095 8605 l0 -875 470 1 c486 0 557 5 679 45 218 71 327 229 313
453 -11 190 -94 306 -268 376 l-77 31 42 22 c127 68 202 191 210 344 11 228
-109 379 -359 452 -65 18 -104 20 -540 24 l-470 3 0 -876z m895 710 c177 -35
278 -137 285 -288 7 -161 -76 -264 -251 -313 -48 -13 -121 -17 -401 -20 l-343
-3 0 319 0 318 338 -3 c185 -2 353 -6 372 -10z m125 -799 c176 -50 256 -142
256 -296 1 -184 -87 -278 -306 -326 -16 -3 -200 -8 -407 -10 l-378 -3 0 330 0
331 388 -4 c328 -4 396 -7 447 -22z"/>
<path d="M6025 8608 l0 -873 93 -3 92 -3 0 276 0 275 38 0 c20 0 158 1 305 3
l268 2 197 -277 197 -277 104 -1 103 0 -17 28 c-10 15 -29 43 -44 62 -14 19
-101 140 -193 269 l-167 234 89 43 c204 100 311 286 304 531 -7 273 -148 457
-415 542 -102 33 -122 34 -549 38 l-405 4 0 -873z m805 697 c263 -52 389 -206
376 -460 -11 -205 -132 -337 -352 -385 -70 -15 -133 -18 -364 -20 l-280 -1 0
441 0 441 278 -2 c181 0 299 -5 342 -14z"/>
<path d="M12285 8608 l0 -873 583 -3 582 -2 0 80 0 80 -490 0 -490 0 0 795 0
795 -93 0 -92 0 0 -872z"/>
<path d="M13370 9400 l0 -80 305 0 c237 0 305 -3 306 -12 1 -7 2 -364 3 -793
l1 -780 93 -3 92 -3 0 796 0 795 308 0 307 0 1 80 0 80 -708 0 -708 0 0 -80z"/>
<path d="M15115 8605 l0 -876 415 2 c425 1 493 6 629 45 154 44 339 168 430
288 84 112 151 276 167 408 7 62 7 216 0 268 -45 308 -228 544 -517 663 -161
67 -185 70 -679 74 l-445 4 0 -876z m865 702 c14 -4 48 -12 75 -18 68 -15 210
-84 265 -128 127 -102 209 -236 246 -405 3 -11 7 -68 8 -126 13 -382 -214
-656 -604 -728 -14 -2 -170 -7 -347 -9 l-323 -5 0 717 0 717 328 -5 c180 -2
338 -7 352 -10z"/>
<path d="M14666 6818 c-15 -35 -44 -97 -63 -138 -19 -41 -67 -145 -106 -230
-38 -85 -76 -163 -82 -173 -10 -15 -32 26 -151 288 -76 167 -141 301 -145 297
-4 -4 -12 -43 -19 -87 -6 -44 -13 -89 -15 -100 -2 -11 -6 -40 -9 -65 -4 -25
-15 -97 -26 -160 -11 -63 -22 -137 -26 -165 -3 -27 -12 -83 -19 -122 l-12 -73
49 0 c27 0 47 3 44 8 -2 4 -1 28 4 52 4 25 11 68 14 95 6 43 42 301 49 345 1
8 21 -28 44 -80 77 -173 201 -441 206 -447 3 -3 12 10 20 28 17 39 28 65 135
295 44 94 83 181 87 193 9 29 15 22 20 -20 2 -19 6 -53 9 -76 3 -24 8 -60 11
-80 2 -21 12 -87 21 -148 9 -60 17 -121 17 -135 2 -22 7 -25 49 -28 36 -2 47
0 43 10 -2 7 -7 31 -10 53 -3 22 -7 54 -10 70 -3 17 -7 48 -10 70 -15 105 -26
182 -30 206 -3 14 -7 43 -10 65 -7 55 -17 126 -21 149 -2 11 -7 42 -10 69 -13
101 -16 104 -48 34z"/>
<path d="M15627 6507 c1 -199 2 -374 2 -389 1 -26 4 -28 41 -28 l40 0 0 288 0
287 77 -80 c42 -44 139 -147 217 -229 313 -330 286 -304 287 -271 0 17 1 193
2 392 l2 363 -42 0 -43 0 0 -287 0 -288 -93 95 c-98 102 -375 392 -443 466
-23 24 -43 44 -45 44 -2 0 -3 -163 -2 -363z"/>
<path d="M5459 6832 c-351 -117 -353 -616 -2 -731 266 -87 533 108 517 378 -4
78 -13 110 -47 174 -36 69 -96 125 -174 162 -78 36 -211 44 -294 17z m257 -92
c59 -29 115 -86 145 -148 35 -71 33 -188 -4 -259 -33 -63 -84 -115 -146 -145
-66 -33 -187 -33 -253 0 -214 106 -236 394 -40 531 80 56 207 65 298 21z"/>
<path d="M12750 6836 c-72 -19 -120 -47 -171 -96 -175 -168 -145 -469 59 -598
188 -120 455 -58 557 129 95 176 52 390 -103 504 -90 66 -231 92 -342 61z
m235 -97 c60 -29 117 -87 147 -148 18 -37 22 -62 21 -126 -1 -97 -22 -151 -83
-212 -167 -166 -439 -97 -504 129 -45 153 38 315 191 373 57 22 167 14 228
-16z"/>
<path d="M4059 6829 c-1 -21 -1 -691 0 -716 1 -20 6 -23 41 -23 l40 0 0 164 0
163 89 5 c79 5 93 9 136 38 65 44 89 100 82 187 -6 79 -39 133 -100 165 -35
18 -63 22 -164 26 -99 4 -123 2 -124 -9z m230 -85 c48 -19 73 -54 75 -103 2
-90 -59 -141 -167 -141 l-57 0 0 130 0 130 55 0 c30 0 72 -7 94 -16z"/>
<path d="M4629 6804 c0 -43 0 -643 1 -686 0 -26 3 -28 40 -28 l40 0 0 160 c0
176 6 190 50 122 14 -20 63 -92 110 -159 l85 -122 53 -1 53 0 -23 33 c-12 17
-62 87 -110 154 -48 67 -89 127 -90 134 -2 6 7 13 20 15 61 11 121 65 142 130
19 56 7 147 -24 194 -42 64 -91 83 -228 88 l-118 4 -1 -38z m212 -56 c80 -27
111 -123 63 -196 -21 -32 -88 -59 -146 -61 l-48 -1 0 135 0 135 49 0 c26 0 63
-5 82 -12z"/>
<path d="M6189 6814 c0 -16 -1 -184 -1 -374 l0 -345 41 -3 41 -3 0 164 0 164
83 5 c163 9 238 88 224 236 -7 68 -43 124 -100 154 -35 19 -62 23 -164 26
l-123 4 -1 -28z m238 -73 c64 -30 85 -90 57 -162 -21 -52 -73 -78 -156 -79
l-58 0 0 130 0 130 58 0 c34 0 74 -8 99 -19z"/>
<path d="M6749 6833 c-1 -9 -1 -723 0 -735 1 -5 88 -8 195 -8 l194 0 0 40 1
40 -155 0 -154 0 0 145 0 145 150 0 150 0 -2 40 -1 40 -149 0 -148 0 0 110 0
110 155 0 156 0 -3 40 -2 40 -193 0 c-106 0 -193 -3 -194 -7z"/>
<path d="M7339 6828 c-1 -17 -1 -687 0 -715 1 -20 6 -23 41 -23 l40 0 0 159
c0 88 4 162 9 165 4 3 59 -69 122 -159 l114 -165 53 0 53 0 -22 33 c-13 17
-62 86 -109 152 -47 66 -89 125 -93 132 -5 8 6 16 33 23 92 25 147 113 137
220 -8 96 -56 155 -146 180 -54 15 -231 13 -232 -2z m230 -87 c46 -24 70 -69
66 -123 -6 -77 -56 -116 -157 -125 l-58 -6 0 137 0 136 55 0 c36 0 70 -7 94
-19z"/>
<path d="M7874 6800 l0 -40 91 0 92 0 0 -332 0 -333 41 -3 42 -3 0 335 0 336
93 0 92 0 -2 32 c-1 18 -2 36 -2 41 -1 4 -101 7 -224 7 l-223 0 0 -40z"/>
<path d="M8440 6803 c12 -21 69 -119 125 -218 l103 -180 1 -145 c0 -80 0 -151
0 -157 1 -8 16 -13 41 -13 l40 0 0 160 0 159 80 137 c44 75 80 137 80 139 0 1
20 36 45 76 l44 74 -41 3 c-22 2 -46 1 -53 -2 -7 -2 -30 -35 -51 -73 -123
-217 -139 -243 -147 -240 -5 1 -48 72 -96 157 l-88 155 -53 3 -53 3 23 -38z"/>
<path d="M9469 6839 c0 -2 0 -170 -1 -374 l-1 -370 99 -3 c141 -5 222 11 292
58 103 69 156 158 166 276 10 124 -28 229 -110 310 -78 77 -135 96 -306 102
-76 2 -138 3 -139 1z m305 -110 c109 -51 166 -148 162 -274 -3 -85 -28 -145
-82 -199 -56 -56 -112 -78 -216 -84 l-88 -5 0 298 0 298 88 -5 c63 -4 101 -12
136 -29z"/>
<path d="M10229 6838 c0 -4 0 -600 0 -680 l1 -68 193 0 194 0 1 40 2 40 -155
0 -155 0 0 145 0 145 148 0 148 0 2 40 3 40 -133 0 c-73 -1 -141 -1 -150 -1
-16 1 -18 13 -18 111 l0 110 154 0 154 0 0 40 1 40 -195 0 c-107 0 -194 -1
-195 -2z"/>
<path d="M10744 6823 c21 -55 149 -391 156 -408 4 -11 17 -41 29 -67 12 -26
21 -51 21 -56 0 -8 89 -234 94 -240 2 -1 25 55 51 125 27 71 52 132 57 138 4
5 8 16 8 25 1 8 9 33 20 55 11 22 19 47 20 55 0 9 4 20 8 25 5 6 21 42 35 80
14 39 44 117 66 175 23 58 41 106 41 108 0 2 -21 2 -47 0 l-47 -3 -43 -115
c-25 -63 -51 -131 -58 -150 -7 -19 -35 -93 -62 -163 l-49 -128 -26 68 c-14 37
-58 154 -97 258 -39 105 -76 200 -81 213 -8 18 -17 22 -56 22 -40 0 -45 -2
-40 -17z"/>
<path d="M11499 6838 c-1 -4 -1 -698 0 -725 l1 -23 195 0 195 0 0 40 0 40
-155 0 -155 0 0 145 0 145 150 0 150 0 -3 40 -2 40 -125 -1 c-69 0 -135 0
-147 0 -22 1 -23 4 -23 111 l0 110 155 0 155 0 0 40 0 40 -195 0 c-107 0 -195
-1 -196 -2z"/>
<path d="M12099 6833 c-1 -11 -1 -715 0 -730 1 -10 37 -13 146 -13 l145 0 0
40 0 40 -105 0 -105 0 0 335 0 335 -40 0 c-22 0 -40 -3 -41 -7z"/>
<path d="M13449 6826 c0 -9 0 -45 0 -81 0 -36 0 -198 0 -360 l1 -295 40 0 40
0 0 164 0 163 84 5 c106 5 168 38 204 108 32 62 27 161 -12 220 -43 66 -90 84
-233 88 -108 4 -123 2 -124 -12z m238 -85 c63 -29 85 -91 56 -162 -20 -52 -73
-78 -155 -79 l-58 0 0 130 0 130 58 0 c34 0 74 -8 99 -19z"/>
<path d="M15039 6833 c-3 -27 -4 -720 -1 -730 3 -10 52 -13 198 -13 l194 0 0
40 0 40 -155 0 -155 0 0 145 0 145 149 0 148 0 -1 38 -1 37 -135 2 c-74 1
-141 2 -147 2 -10 1 -13 30 -13 111 l0 110 155 0 155 0 0 40 0 40 -195 0
c-107 0 -195 -3 -196 -7z"/>
<path d="M16454 6800 l-1 -40 92 0 92 0 0 -332 -1 -333 42 -3 42 -3 0 335 0
336 93 0 92 0 0 40 0 40 -225 0 -226 0 0 -40z"/>
</g>
</svg>
